<?xml version="1.0" encoding="UTF-8"?>
<mxfile host="Electron" modified="2024-06-11T17:25:40.325Z" agent="5.0 (Windows NT 10.0; Win64; x64) AppleWebKit/537.36 (KHTML, like Gecko) draw.io/20.2.3 Chrome/102.0.5005.167 Electron/19.0.11 Safari/537.36" etag="-pNg0GWXC2SuUMVTgGGG" version="20.2.3" type="device">
  <diagram name="Page-1" id="140236884962832">
    <mxGraphModel dx="2942" dy="1217" grid="1" gridSize="10" guides="1" tooltips="1" connect="1" arrows="1" fold="1" page="1" pageScale="1" pageWidth="850" pageHeight="1100" math="0" shadow="0">
      <root>
        <mxCell id="0" />
        <mxCell id="1" parent="0" />
        <mxCell id="5vh-vQqO_T7fT6VmDigF-140236884965712" style="edgeStyle=orthogonalEdgeStyle;rounded=0;orthogonalLoop=1;jettySize=auto;html=1;entryX=0.5;entryY=0;entryDx=0;entryDy=0;" parent="1" source="140236884963280" target="140236884964240" edge="1">
          <mxGeometry relative="1" as="geometry">
            <Array as="points">
              <mxPoint x="160" y="230" />
              <mxPoint x="160" y="230" />
            </Array>
          </mxGeometry>
        </mxCell>
        <mxCell id="g1uZYZurmc47eg6o4QuC-140236884964240" value="label1" style="edgeLabel;html=1;align=center;verticalAlign=middle;resizable=0;points=[];" vertex="1" connectable="0" parent="5vh-vQqO_T7fT6VmDigF-140236884965712">
          <mxGeometry x="-0.22" y="1" relative="1" as="geometry">
            <mxPoint as="offset" />
          </mxGeometry>
        </mxCell>
        <mxCell id="5vh-vQqO_T7fT6VmDigF-140236884965713" style="edgeStyle=orthogonalEdgeStyle;rounded=0;orthogonalLoop=1;jettySize=auto;html=1;entryX=0;entryY=0.5;entryDx=0;entryDy=0;" parent="1" source="140236884963280" target="140236884963536" edge="1">
          <mxGeometry relative="1" as="geometry" />
        </mxCell>
        <mxCell id="140236884963280" value="Node 1" style="whiteSpace=wrap;rounded=0;dashed=0;" parent="1" vertex="1">
          <mxGeometry x="100" y="100" width="120" height="80" as="geometry" />
        </mxCell>
        <mxCell id="140236884963536" value="Node 2" style="whiteSpace=wrap;rounded=0;dashed=0;" parent="1" vertex="1">
          <mxGeometry x="330" y="100" width="120" height="80" as="geometry" />
        </mxCell>
        <mxCell id="140236884964240" value="Node 3" style="whiteSpace=wrap;rounded=0;dashed=0;" parent="1" vertex="1">
          <mxGeometry x="100" y="280" width="120" height="80" as="geometry" />
        </mxCell>
      </root>
    </mxGraphModel>
  </diagram>
</mxfile>
